<?xml version="1.0" encoding="utf-8"?>
<svg xmlns="http://www.w3.org/2000/svg" width="210" height="154" viewBox="0 0 87 64">
    <path fill="#cae3f0" d="M69.403 24.935c0 13.771-11.164 24.935-24.935 24.935s-24.935-11.164-24.935-24.935c0-13.771 11.164-24.935 24.935-24.935s24.935 11.164 24.935 24.935z"/>
    <path fill="#4b84a1" d="M40.963 5.186c.046.505-.178.939-.501.968s-.622-.356-.668-.862c-.046-.505.178-.939.501-.968s.622.356.668.862zM42.799 5.019c.046.505-.178.939-.501.968s-.622-.356-.668-.862c-.046-.505.178-.939.501-.968s.622.356.668.862zM57.345 21.38c.046.505-.178.939-.501.968s-.622-.357-.668-.862c-.046-.505.178-.939.501-.968s.622.357.668.862zM59.285 21.203c.046.505-.178.939-.501.968s-.622-.357-.668-.862c-.046-.505.178-.939.501-.968s.622.357.668.862zM40.732 25.896c.046.505-.178.939-.501.968s-.622-.357-.668-.862c-.046-.505.178-.939.501-.968s.622.357.668.862zM42.299 25.753c.046.505-.178.939-.501.968s-.622-.357-.668-.862c-.046-.505.178-.939.501-.968s.622.357.668.862zM83.182 12.675c.229.229.124.706-.235 1.065s-.835.464-1.065.235c-.229-.229-.124-.706.235-1.065s.835-.464 1.065-.235zM84.369 13.791c.229.229.124.706-.235 1.065s-.835.464-1.065.235c-.229-.229-.124-.706.235-1.065s.835-.464 1.065-.235zM42.171 42.261c1.73.062 2.698 1.921 3.786 3.018l.077-.598c-.194.084-.382.157-.587.207l.293.696c.157-.101.293-.187.486-.193l-.101-.748c-1.139.41-2.246.895-3.352 1.386-.559.248-1.117.497-1.681.732l-.864.347c-.192.074-.645.333-.827.249-.164-.076-.304-.433-.406-.589-.148-.227-.295-.453-.434-.685-.281-.469-.589-.992-.705-1.532-.062-.284.022-.218.255-.273l.863-.241c.525-.118 1.033-.229 1.513-.481.433-.228.049-.886-.384-.657-.631.332-1.411.433-2.098.611-.412.106-.898.197-.97.706-.074.523.325 1.234.558 1.692.308.605.698 1.165 1.067 1.734.347.536.749.577 1.331.365.672-.245 1.333-.52 1.989-.803 1.444-.623 2.866-1.294 4.347-1.827.383-.138.353-.761-.101-.748-.331.01-.594.118-.87.297-.36.233-.134.799.293.696.269-.065.515-.174.769-.283.231-.099.232-.441.077-.598-1.28-1.29-2.291-3.168-4.324-3.241-.49-.017-.489.744 0 .761zM43.932 26.725c1.079.767 2.143 1.641 3.442 2.004 1.152.322 2.336.045 3.283-.668.995-.748 1.648-1.878 2.156-2.992.58-1.273 1.04-2.599 1.558-3.898.418-1.048.874-2.676 1.97-3.235 1.179-.601 2.447.54 3.049 1.458 1.47 2.244 1.038 5.229-.241 7.453-1.425 2.478-3.901 4.239-6.718 4.729-.249.043-.338.363-.227.559 2.154 3.817 4.745 7.374 7.712 10.599l.077-.598c-1.223.533-2.45 1.056-3.681 1.568-.585.243-1.17.484-1.757.723-.461.188-.953.298-1.396.516-1.122.554-2.242 1.074-3.424 1.491-1.08.38-2.246.527-3.301.963-1.083.448-2.161.871-3.269 1.258-.477.167-.895.434-1.376.596-.634.213-1.27.423-1.906.63-2.423.786-4.861 1.524-7.305 2.24-2.752.807-5.511 1.587-8.267 2.38l.293.038c-.871-.476-1.373-1.368-1.96-2.135-.557-.728-1.127-1.447-1.689-2.172-.28-.361-.569-.71-.86-1.061-.276-.333-.587-.555-.888-.859-.677-.684-1.335-1.386-1.984-2.097-2.584-2.834-5.023-5.793-7.797-8.449-1.827-1.75-3.797-3.569-4.634-6.029-1.099-3.232-.358-6.783-.138-10.093.144-2.16.08-4.311-.41-6.427-.464-1.999-1.268-3.914-2.348-5.659-.257-.416-.916-.034-.657.384 1.633 2.637 2.588 5.659 2.713 8.761.131 3.247-.58 6.462-.478 9.707.067 2.112.576 4.149 1.774 5.909 1.321 1.942 3.151 3.46 4.793 5.114 2.235 2.252 4.263 4.694 6.392 7.045.541.598 1.09 1.191 1.649 1.772.479.498 1.034.933 1.474 1.459 1.016 1.216 1.99 2.477 2.936 3.749.434.584.827 1.154 1.44 1.568.288.195.439.243.771.153.415-.112.827-.238 1.24-.356 1.615-.463 3.232-.924 4.846-1.39 3.239-.936 6.471-1.896 9.676-2.942.746-.244 1.583-.428 2.277-.801.671-.359 1.407-.562 2.12-.829.735-.276 1.447-.644 2.193-.884l2.172-.569c1.502-.488 2.887-1.15 4.315-1.807.326-.15.691-.227 1.029-.364l1.203-.492c.739-.305 1.477-.613 2.213-.925.798-.338 1.594-.68 2.389-1.026.236-.103.225-.436.077-.598-2.925-3.179-5.47-6.683-7.594-10.445l-.227.559c5.054-.881 9.602-6.195 8.211-11.481-.311-1.184-.965-2.329-1.942-3.085-.908-.702-2.166-1.023-3.171-.325-1.041.724-1.491 2.066-1.948 3.187-.595 1.458-1.086 2.968-1.772 4.388-.673 1.394-1.718 2.962-3.413 3.107-1.621.139-3.052-1.159-4.282-2.034-.4-.285-.78.375-.384.657zM37.242 22.101c.479.37.962.733 1.452 1.089.397.288.777-.372.384-.657-.437-.317-.87-.64-1.297-.97-.164-.127-.378-.157-.538 0-.133.13-.162.413 0 .538zM5.349 38.126c4.416 5.101 8.707 10.309 12.864 15.622 1.205 1.54 2.399 3.089 3.581 4.647.109.144.248.214.43.175 1.499-.32 2.973-.87 4.431-1.332 2.871-.91 5.735-1.844 8.596-2.784 6.503-2.137 12.999-4.301 19.461-6.558 1.991-.695 4.031-1.34 5.961-2.198.447-.199.06-.854-.384-.657-.168.075-.421.177-.692.282-.37.144-.742.283-1.114.421-1.062.392-2.129.77-3.196 1.146-2.966 1.042-5.942 2.056-8.921 3.061-6.354 2.145-12.719 4.26-19.109 6.298-1.722.549-3.464 1.209-5.235 1.588l.43.175c-4.12-5.424-8.371-10.748-12.756-15.961-1.259-1.496-2.528-2.983-3.808-4.462-.321-.371-.858.17-.538.539zM23.059 25.659c.641 2.224 1.324 4.539 2.883 6.315 1.359 1.548 3.345 2.543 5.431 2.192 2.161-.364 3.887-1.974 4.895-3.852.524-.975.891-2.028 1.166-3.099.241-.936.438-1.912.889-2.775.431-.826 1.14-1.497 2.122-1.504 1.017-.008 1.982.655 2.474 1.519 1.09 1.917.359 4.46-.682 6.238-2.04 3.481-6.048 5.509-9.935 6.093-2.68.402-5.481.138-7.6-1.698-1.809-1.567-2.94-3.764-3.901-5.916-.069-.154-.279-.212-.43-.175-2.546.633-5.038 1.455-7.461 2.46l.43.559c1.437-2.496 3.083-4.88 4.729-7.241 1.691-2.426 3.404-4.866 5.315-7.127.445-.527.925-1.14 1.474-1.42 1.081-.55 2.316-.862 3.471-1.208 1.554-.464 3.119-.89 4.687-1.304.663-.175 1.326-.347 1.99-.517.456-.117 1.474-.547 1.796-.124.591.775-.072 2.299-.444 3.028-.529 1.038-1.32 1.943-2.299 2.58-2.094 1.362-4.849 1.338-6.972.056-.189-.114-.4-.027-.521.137l-1.329 1.804c-.127.173-.019.416.137.521 2.62 1.765 5.918 2.247 8.985 1.606s5.753-2.463 7.673-4.915c1.942-2.481 3.194-5.6 3.392-8.753.194-3.079-1.061-6.552-4.196-7.664-4.415-1.566-4.653 5.367-4.353 8.052l.279-.367c-3.761.761-7.503 1.615-11.22 2.564l-1.249.323c-.392.102-1 .145-1.338.368l-.177.183c-.278.319-.535.661-.801.99l-6.626 8.188-1.945 2.404c-.305.377.23.919.538.538l4.927-6.089 3.263-4.032 1.001-1.237c.069-.085.146-.229.236-.292l.043-.053c-.031.018.269-.021.314-.033l.768-.202c4.128-1.079 8.287-2.04 12.47-2.887.148-.03.297-.212.279-.367-.19-1.7-.099-3.415.315-5.076.157-.631.354-1.285.763-1.804.535-.677 1.309-.744 2.1-.507 3.022.91 4.056 4.356 3.835 7.182-.434 5.54-4.244 11.047-9.722 12.564-3.087.855-6.492.462-9.171-1.342l.137.521 1.329-1.804-.521.137c1.935 1.168 4.385 1.412 6.496.581 1.964-.773 3.507-2.425 4.211-4.409.295-.831.552-1.892.13-2.727-.435-.858-1.251-.754-2.052-.55-1.439.366-2.875.739-4.308 1.129-1.646.448-3.293.906-4.91 1.45-.858.288-1.8.554-2.47 1.191-.79.752-1.461 1.645-2.13 2.503-1.021 1.311-2.006 2.651-2.973 4.003-2.105 2.942-4.21 5.927-6.016 9.064-.15.261.108.693.43.559 2.423-1.006 4.915-1.827 7.461-2.46l-.43-.175c.89 1.992 1.926 3.987 3.473 5.556 1.66 1.684 3.802 2.534 6.157 2.599 4.197.116 8.724-1.557 11.62-4.64 1.396-1.487 2.428-3.365 2.725-5.399.306-2.099-.355-4.451-2.499-5.273-.906-.347-1.941-.289-2.755.262-.742.502-1.191 1.282-1.511 2.1-.389.994-.566 2.052-.881 3.069-.356 1.15-.852 2.272-1.583 3.236-.811 1.07-1.947 1.925-3.257 2.267-1.287.337-2.59.065-3.703-.64-2.489-1.575-3.367-4.568-4.136-7.237-.135-.471-.869-.271-.733.201zM60.921 22.15c4.33 1.349 8.949 1.067 13.279-.123 3.738-1.027 7.503-2.634 10.095-5.622.971-1.12 2.201-2.761 1.723-4.344-.483-1.598-2.137-1.692-3.484-1.211-.752.268-1.434.669-2.129 1.054-.954.529-1.92 1.034-2.904 1.505-2.016.966-4.108 1.783-6.274 2.344-4.876 1.264-10.246 1.143-14.725-1.351l.077.598c3.283-3.811 6.392-7.769 9.32-11.859.162-.226-.052-.597-.329-.573-5.921.529-11.749 1.598-17.494 3.119-.473.125-.272.86.202.734 5.679-1.504 11.437-2.57 17.291-3.092l-.329-.573c-2.89 4.038-5.96 7.943-9.201 11.704-.155.18-.15.471.077.598 3.614 2.012 7.851 2.58 11.923 2.076 4.106-.508 7.991-2.05 11.631-3.969 1.294-.682 2.788-1.853 4.325-1.841.806.006 1.343.604 1.357 1.404.015.812-.442 1.59-.89 2.236-2.132 3.08-5.659 4.838-9.14 5.937-4.598 1.452-9.535 1.967-14.201.513-.468-.145-.668.59-.202.735zM46.32 10.2c4.299-.741 8.523-1.841 12.775-2.804l-.43-.559-4.165 5.414.598-.077c-.644-.656-1.336-1.27-1.841-2.046-.109-.168-.34-.251-.521-.137-.382.243-.794.423-1.192.637l-.925.588c-.469.263-.973.465-1.447.721-.214.116-.248.431-.077.598 2.047 1.997 3.691 4.371 5.832 6.277.365.325.905-.212.538-.538-2.141-1.905-3.784-4.28-5.832-6.277l-.077.598 1.447-.721.925-.588c.398-.214.81-.394 1.192-.637l-.521-.137c.541.832 1.269 1.496 1.959 2.2.189.193.453.112.598-.077l4.165-5.414c.219-.284-.141-.625-.43-.559-4.252.963-8.476 2.063-12.775 2.804-.482.083-.278.817.202.734zM59.001 30.573c2.289 6.257 8.856 9.48 15.109 10.311 1.507.2 3.177.102 4.325-1.021.955-.934 1.087-2.338.464-3.495-1.423-2.642-5.263-1.852-6.39.615-.614 1.343-.51 2.986.488 4.118.948 1.076 2.576 1.523 3.916.981.448-.181.252-.918-.202-.734-1.065.431-2.289.141-3.084-.687-.81-.842-.924-2.129-.506-3.186.444-1.124 1.51-1.922 2.72-2.006 1.179-.081 2.257.604 2.595 1.754.362 1.233-.416 2.301-1.556 2.737-1.321.505-2.834.183-4.172-.085-2.735-.549-5.42-1.494-7.743-3.061-2.328-1.571-4.258-3.789-5.229-6.445-.167-.456-.902-.259-.733.203zM67.642 49.245c2.45 1.481 4.937 2.899 7.459 4.253.431.231.816-.425.384-.657-2.522-1.354-5.009-2.772-7.459-4.253-.42-.254-.803.404-.384.657zM59.228 60.249c-.083 2.329-4.648 2.333-4.648 0s4.565-2.33 4.648 0c.017.488.778.491.761 0-.093-2.627-3.835-3.188-5.457-1.605-.802.782-.943 1.994-.267 2.903.721.97 2.035 1.336 3.194 1.166 1.28-.188 2.482-1.092 2.53-2.464.017-.49-.743-.489-.761 0z"/>
</svg>